HIERARCHY
ROOT Hips
{
  OFFSET 0 0 0
  CHANNELS 6 Xposition Yposition Zposition Zrotation Yrotation Xrotation
  JOINT LeftThigh
  {
    OFFSET 8.409438 0 -5.917753
    CHANNELS 3 Zrotation Yrotation Xrotation
    JOINT LeftLeg
    {
      OFFSET 0 0 -42.358652
      CHANNELS 3 Zrotation Yrotation Xrotation
      JOINT LeftFoot
      {
        OFFSET 0 0 -39.357303
        CHANNELS 3 Zrotation Yrotation Xrotation
      }
    }
  }
  JOINT RightThigh
  {
    OFFSET -8.409438 0 -5.917753
    CHANNELS 3 Zrotation Yrotation Xrotation
    JOINT RightLeg
    {
      OFFSET 0 0 -42.358652
      CHANNELS 3 Zrotation Yrotation Xrotation
      JOINT RightFoot
      {
        OFFSET 0 0 -39.357303
        CHANNELS 3 Zrotation Yrotation Xrotation
      }
    }
  }
  JOINT SpineLow
  {
    OFFSET 0 0 4.719101
    CHANNELS 3 Zrotation Yrotation Xrotation
    JOINT SpineMid
    {
      OFFSET 0 0 12.899191
      CHANNELS 3 Zrotation Yrotation Xrotation
      JOINT Chest
      {
        OFFSET 0 0 12.899191
        CHANNELS 3 Zrotation Yrotation Xrotation
        JOINT LeftShoulder
        {
          OFFSET 7.550562 1.41573 9.438202
          CHANNELS 3 Zrotation Yrotation Xrotation
          JOINT LeftArm
          {
            OFFSET 9.155056 0 4.247191
            CHANNELS 3 Zrotation Yrotation Xrotation
            JOINT LeftForearm
            {
              OFFSET 0 0 25.771955
              CHANNELS 3 Zrotation Yrotation Xrotation
              JOINT LeftHand
              {
                OFFSET 0 0 25.197169
                CHANNELS 3 Zrotation Yrotation Xrotation
              }
            }
          }
        }
        JOINT RightShoulder
        {
          OFFSET -7.550562 1.41573 9.438202
          CHANNELS 3 Zrotation Yrotation Xrotation
          JOINT RightArm
          {
            OFFSET -9.155056 0 4.247191
            CHANNELS 3 Zrotation Yrotation Xrotation
            JOINT RightForearm
            {
              OFFSET 0 0 -25.771955
              CHANNELS 3 Zrotation Yrotation Xrotation
              JOINT RightHand
              {
                OFFSET 0 0 -25.197169
                CHANNELS 3 Zrotation Yrotation Xrotation
              }
            }
          }
        }
        JOINT Neck
        {
          OFFSET 0 0 15.101124
          CHANNELS 3 Zrotation Yrotation Xrotation
          JOINT Head
          {
            OFFSET 0 0 11.325843
            CHANNELS 3 Zrotation Yrotation Xrotation
            End Site
            {
              OFFSET 0 0 14.157303
            }
          }
        }
      }
    }
  }
}
MOTION
Frames: 8
Frame Time: 0.0
0.0  101.685394  0.0  0.647508  -30.320592  -98.223358  26.174974  -27.300143  -24.107106  9.659816  13.208003  53.122545  -2.260816  2.505577  1.547298  -14.643869  22.933593  -14.072648  4.985237  6.064152  33.044407  0.465438  3.360958  -7.832825  -0.33186  0.837716  2.386211  -0.823777  2.319936  6.513291  -0.823777  2.319936  6.51329  -4.713699  18.01796  6.238537  -139.487757  61.965314  -95.101481  -27.181108  -13.872294  111.460349  100.343474  17.17682  -11.952775  8.404238  -12.394428  17.833299  100.487117  29.101185  46.210632  -34.587674  10.625882  -85.644125  52.575483  -10.284157  14.614369  3.283953  -3.396433  -2.829052  2.446567  -2.562673  -2.10297  
0.0  101.685394  0.0  0.509516  -30.122476  -98.021364  25.964523  -27.181601  -24.289109  9.727397  13.02053  53.103583  -2.277849  2.388232  1.399803  -14.56049  22.703102  -14.039223  5.115609  6.166066  32.92383  0.578015  3.498952  -7.85044  -0.360895  0.82522  2.383409  -0.904406  2.288636  6.504717  -0.904406  2.288636  6.504717  -4.815347  18.101389  6.236753  -139.384745  62.022255  -95.016531  -27.2206  -14.044879  111.550547  100.15277  16.803315  -11.835397  8.45768  -12.400999  17.812502  100.547907  29.068226  46.348286  -34.665466  10.432194  -85.65194  52.888889  -10.380926  14.371855  3.20065  -3.400825  -2.851797  2.383959  -2.565698  -2.120459  
0.0  101.685394  0.0  0.333212  -29.88342  -97.789713  25.847344  -27.057262  -24.466683  9.667892  12.866072  52.941796  -2.225062  2.34249  1.400763  -14.615557  22.521112  -13.939385  5.214597  6.188578  32.611998  0.366449  3.497913  -7.846535  -0.387048  0.80629  2.376501  -0.977926  2.239424  6.485112  -0.977926  2.239424  6.485112  -4.985982  18.206662  6.255825  -139.29274  62.070031  -94.878113  -27.212067  -14.238236  111.549961  100.158117  16.762945  -11.844283  8.482823  -12.429169  17.805731  100.54321  29.04837  46.482747  -34.53727  10.216945  -85.654641  53.225122  -10.420207  14.220921  3.156407  -3.374134  -2.837812  2.350998  -2.545396  -2.110366  
0.0  101.685394  0.0  0.144682  -29.695909  -97.55072  25.863748  -26.928537  -24.651342  9.535774  12.755987  52.697835  -2.284753  2.279732  1.479994  -14.706221  22.40931  -13.737239  5.280142  6.124903  32.079985  0.278971  3.539547  -7.851702  -0.403859  0.781879  2.370024  -1.026437  2.174324  6.467103  -1.026437  2.174324  6.467102  -5.163341  18.355665  6.267258  -139.166205  62.104194  -94.768602  -27.160816  -14.327025  111.574573  99.943595  16.38004  -11.802495  8.525772  -12.478998  17.807518  100.486861  29.050795  46.647169  -34.398747  9.925947  -85.675794  53.587432  -10.443549  14.112179  3.107619  -3.33739  -2.820236  2.314697  -2.517518  -2.097656  
0.0  101.685394  0.0  -0.037978  -29.59421  -97.354142  25.907599  -26.768824  -24.765466  9.35035  12.633575  52.409792  -2.341011  2.236285  1.599538  -14.722316  22.302572  -13.386676  5.260202  6.113176  31.362891  0.195247  3.527023  -7.849451  -0.402235  0.75835  2.369155  -1.024317  2.109911  6.465046  -1.024317  2.109912  6.465047  -5.344565  18.525684  6.296085  -139.08647  62.138499  -94.641356  -27.066263  -14.37629  111.53896  99.933862  16.342639  -11.894449  8.551734  -12.548683  17.877706  100.407936  29.129456  46.835028  -34.206877  9.58954  -85.696619  53.904049  -10.4593  14.07419  3.06273  -3.301596  -2.795769  2.28135  -2.490338  -2.079747  
0.0  101.685394  0.0  -0.218457  -29.562646  -97.18889  25.872847  -26.615589  -24.818341  9.140017  12.509856  52.161376  -2.173953  2.274526  1.725619  -14.587095  22.17418  -12.902692  5.100055  6.205301  30.551556  0.201519  3.453556  -7.85714  -0.387993  0.736781  2.377788  -0.987244  2.049752  6.489342  -0.987244  2.049752  6.489343  -5.504025  18.662271  6.294667  -139.14417  62.131225  -94.644575  -26.916905  -14.354297  111.493256  99.730595  15.981244  -11.93307  8.56889  -12.614877  17.935935  100.322811  29.245395  47.013843  -33.996512  9.214169  -85.697709  54.138258  -10.473043  14.10652  3.020689  -3.280967  -2.781228  2.250008  -2.474599  -2.069178  
0.0  101.685394  0.0  -0.391431  -29.687437  -97.039083  25.82613  -26.564304  -24.822183  9.039368  12.416165  51.988289  -2.042519  2.325365  1.709787  -14.177946  22.027518  -12.358132  4.751871  6.395218  29.753623  0.515029  3.150807  -7.89575  -0.344284  0.719206  2.394711  -0.869067  1.997693  6.537141  -0.869067  1.997693  6.537141  -5.652588  18.725013  6.252518  -139.416618  62.079784  -94.825736  -26.717089  -14.300431  111.423155  99.70769  15.919958  -12.120486  8.549667  -12.651384  17.973814  100.237017  29.403313  47.140192  -33.77393  8.847219  -85.688779  54.252128  -10.5346  14.20558  2.984508  -3.27316  -2.775266  2.222948  -2.468548  -2.064942  
0.0  101.685394  0.0  -0.535556  -29.987345  -96.947424  25.847857  -26.6165  -24.65587  9.077847  12.359821  51.76311  -2.089735  2.394448  1.583515  -13.419354  21.946978  -11.751426  4.252208  6.498425  28.968972  1.133283  2.41727  -7.828052  -0.267144  0.707878  2.413994  -0.658928  1.959326  6.592276  -0.658928  1.959326  6.592276  -5.771763  18.693391  6.244533  -139.918979  61.967045  -95.237269  -26.491869  -14.245039  111.355758  99.687713  15.873467  -12.320563  8.465338  -12.670508  18.017232  100.153272  29.544108  47.209177  -33.598107  8.570858  -85.686843  54.232161  -10.671121  14.307272  2.961098  -3.279832  -2.73081  2.2056  -2.473227  -2.031698  
